<?xml version="1.0" encoding="UTF-8"?>
<!DOCTYPE svg PUBLIC "-//W3C//DTD SVG 1.1//EN" "http://www.w3.org/Graphics/SVG/1.1/DTD/svg11.dtd">
<svg version="1.1" xmlns="http://www.w3.org/2000/svg" xmlns:xlink="http://www.w3.org/1999/xlink" x="0" y="0" width="184.644" height="65.969" viewBox="0, 0, 184.644, 65.969">
  <path d="M184.644,6.632 L184.644,65.969 L6.515,65.969 L6.515,6.632 L184.644,6.632 z M184.144,7.132 L7.015,7.132 L7.015,65.469 L184.144,65.469 L184.144,7.132 z" fill="#838383"/>
  <path d="M0,0 L0,65.969 L6.632,65.969 L6.632,6.632 L184.644,6.632 L184.644,0 z" fill="#838383"/>
  <path d="M19.663,26.411 L25.597,26.411 L25.597,33.275 L30.832,26.411 L38.046,26.411 L31.065,34.09 L39.093,46.19 L31.763,46.19 L26.993,38.511 L25.364,40.373 L25.364,46.19 L19.663,46.19 L19.663,26.411 z M57.01,38.511 C57.01,43.979 54.102,46.655 48.284,46.655 C42.467,46.655 39.558,43.979 39.558,38.511 L39.558,26.411 L45.492,26.411 L45.492,37.231 C45.492,39.209 45.492,41.769 48.401,41.769 C51.193,41.769 51.193,39.209 51.193,37.231 L51.193,26.411 L57.127,26.411 L57.127,38.511 z M65.62,26.411 L71.554,26.411 L71.554,41.071 L79.931,41.071 L79.931,46.19 L65.62,46.19 L65.62,26.411 z M81.676,26.411 L97.383,26.411 L97.383,31.414 L87.494,31.414 L87.494,33.857 L96.452,33.857 L96.452,38.511 L87.494,38.511 L87.494,40.954 L97.616,40.954 L97.616,46.074 L81.676,46.074 L81.676,26.411 z M116.697,38.511 C116.697,43.979 113.788,46.655 107.971,46.655 C102.153,46.655 99.245,43.979 99.245,38.511 L99.245,26.411 L105.178,26.411 L105.178,37.231 C105.178,39.209 105.178,41.769 108.087,41.769 C110.879,41.769 110.879,39.209 110.879,37.231 L110.879,26.411 L116.813,26.411 L116.813,38.511 z M129.844,46.19 L123.212,46.19 L117.511,26.411 L123.445,26.411 L126.586,38.395 L129.728,26.411 L135.778,26.411 L129.844,46.19 z M136.592,26.411 L152.299,26.411 L152.299,31.414 L142.41,31.414 L142.41,33.857 L151.369,33.857 L151.369,38.511 L142.41,38.511 L142.41,40.954 L152.532,40.954 L152.532,46.074 L136.592,46.074 L136.592,26.411 z M154.161,26.411 L160.211,26.411 L165.796,36.999 L165.796,26.411 L171.38,26.411 L171.38,46.19 L165.679,46.19 L159.862,35.37 L159.862,46.19 L154.277,46.19 L154.277,26.411 z" fill="#838383"/>
</svg>
